<svg xmlns="http://www.w3.org/2000/svg" viewBox="0 0 900 620" role="img" aria-labelledby="title desc">
  <title id="title">Funil de aquisicao</title>
  <desc id="desc">Funil abstrato de campanha mostrando etapas de trafego, conversao e venda.</desc>
  <defs>
    <linearGradient id="orange" x1="0" x2="1" y1="0" y2="1">
      <stop offset="0" stop-color="#ffb46a"/>
      <stop offset=".5" stop-color="#ff6a00"/>
      <stop offset="1" stop-color="#8f2b00"/>
    </linearGradient>
  </defs>
  <rect width="900" height="620" rx="36" fill="#050505"/>
  <circle cx="704" cy="118" r="210" fill="#ff6a00" opacity=".13"/>
  <circle cx="188" cy="504" r="180" fill="#ff6a00" opacity=".09"/>
  <g stroke="#ffffff1e">
    <path d="M126 116h648"/>
    <path d="M126 224h648"/>
    <path d="M126 332h648"/>
    <path d="M126 440h648"/>
    <path d="M126 548h648"/>
  </g>
  <path d="M158 126h584L628 266H272L158 126Z" fill="#ffffff10" stroke="#ffffff26"/>
  <path d="M286 294h328L542 398H358L286 294Z" fill="#ffffff10" stroke="#ffffff26"/>
  <path d="M372 426h156L486 520h-72l-42-94Z" fill="url(#orange)"/>
  <path d="M228 178h444" stroke="url(#orange)" stroke-width="12" stroke-linecap="round"/>
  <path d="M352 346h196" stroke="#ffffff75" stroke-width="12" stroke-linecap="round"/>
  <path d="M412 476h76" stroke="#ffffffd0" stroke-width="12" stroke-linecap="round"/>
  <g fill="#fff">
    <circle cx="166" cy="126" r="9"/>
    <circle cx="742" cy="126" r="9"/>
    <circle cx="286" cy="294" r="9"/>
    <circle cx="614" cy="294" r="9"/>
  </g>
  <g fill="#ff6a00">
    <circle cx="450" cy="92" r="16"/>
    <circle cx="610" cy="250" r="12"/>
    <circle cx="332" cy="412" r="10"/>
    <circle cx="548" cy="512" r="8"/>
  </g>
</svg>
